HIERARCHY
ROOT Hips
{
  OFFSET -125.086 92.215 135.881
  CHANNELS 6 Xposition Yposition Zposition Zrotation Xrotation Yrotation
  JOINT LeftUpLeg
  {
    OFFSET 8.64259 1.95398 -2.38835
    CHANNELS 3 Zrotation Xrotation Yrotation
    JOINT LeftLeg
    {
      OFFSET 43.7702 0 0
      CHANNELS 3 Zrotation Xrotation Yrotation
      JOINT LeftFoot
      {
        OFFSET 40.6238 0 0
        CHANNELS 3 Zrotation Xrotation Yrotation
        JOINT LeftToeBase
        {
          OFFSET 12.7242 0 0
          CHANNELS 3 Zrotation Xrotation Yrotation
          End Site
          {
            OFFSET 0 0 0
          }
        }
      }
    }
  }
  JOINT RightUpLeg
  {
    OFFSET -8.2249 1.95398 -2.59336
    CHANNELS 3 Zrotation Xrotation Yrotation
    JOINT RightLeg
    {
      OFFSET 43.5653 0 0
      CHANNELS 3 Zrotation Xrotation Yrotation
      JOINT RightFoot
      {
        OFFSET 40.6238 0 0
        CHANNELS 3 Zrotation Xrotation Yrotation
        JOINT RightToeBase
        {
          OFFSET 12.7242 0 0
          CHANNELS 3 Zrotation Xrotation Yrotation
          End Site
          {
            OFFSET 0 0 0
          }
        }
      }
    }
  }
  JOINT Spine
  {
    OFFSET 0.165834 0.87714 6.61349
    CHANNELS 3 Zrotation Xrotation Yrotation
    JOINT Spine1
    {
      OFFSET 7.38963 1.71661e-005 0
      CHANNELS 3 Zrotation Xrotation Yrotation
      JOINT Spine2
      {
        OFFSET 11.9445 1.14441e-005 0
        CHANNELS 3 Zrotation Xrotation Yrotation
        JOINT Spine3
        {
          OFFSET 14.7254 4.19617e-005 0
          CHANNELS 3 Zrotation Xrotation Yrotation
          JOINT Spine4
          {
            OFFSET 10.9679 0 0
            CHANNELS 3 Zrotation Xrotation Yrotation
            JOINT RightShoulder
            {
              OFFSET 2.46616 -1.6653 3.69651
              CHANNELS 3 Zrotation Xrotation Yrotation
              JOINT RightArm
              {
                OFFSET 13.0012 0 0
                CHANNELS 3 Zrotation Xrotation Yrotation
                JOINT RightForeArm
                {
                  OFFSET 28.7848 1.52588e-005 0
                  CHANNELS 3 Zrotation Xrotation Yrotation
                  JOINT RightHand
                  {
                    OFFSET 26.5688 1.52588e-005 0
                    CHANNELS 3 Zrotation Xrotation Yrotation
                    End Site
                    {
                      OFFSET 0 0 0
                    }
                  }
                }
              }
            }
            JOINT LeftShoulder
            {
              OFFSET 2.38034 -1.29275 -3.7523
              CHANNELS 3 Zrotation Xrotation Yrotation
              JOINT LeftArm
              {
                OFFSET 16.3182 6.10352e-005 0
                CHANNELS 3 Zrotation Xrotation Yrotation
                JOINT LeftForeArm
                {
                  OFFSET 27.0901 0 0
                  CHANNELS 3 Zrotation Xrotation Yrotation
                  JOINT LeftHand
                  {
                    OFFSET 24.5451 1.52588e-005 0
                    CHANNELS 3 Zrotation Xrotation Yrotation
                    End Site
                    {
                      OFFSET 0 0 0
                    }
                  }
                }
              }
            }
            JOINT Neck
            {
              OFFSET 5.0226 -0.0266342 0
              CHANNELS 3 Zrotation Xrotation Yrotation
              JOINT Head
              {
                OFFSET 6.69363 2.86102e-005 0
                CHANNELS 3 Zrotation Xrotation Yrotation
                End Site
                {
                  OFFSET 0 0 0
                }
              }
            }
          }
        }
      }
    }
  }
}
MOTION
Frames:	11
Frame Time:	0.0416667
5.07851 50.9106 19.6721 3.34584 -39.6036 5.90554 -161.462 63.4906 87.2704 -116.246 -1.89025 3.79135 73.6596 8.88788 -16.3696 80.1842 -4.45853 0.0928422 170.678 54.4756 68.8068 -101.242 -21.5803 -2.1386 92.064 -6.31136 26.8514 76.9932 -2.35161 15.7338 1.31376 10.6917 -89.5712 5.47969 2.80337 0.777847 -6.1884 2.83488 0.653609 -28.7411 2.43995 1.58481 -8.72849 2.43995 1.58479 100.338 2.67862 -90.1121 -12.9151 30.6713 -49.7619 -3.93496 -35.5827 -12.2732 -17.7511 -1.06383 1.78213 -81.4614 -25.4817 89.1652 -27.3938 6.84023 -90.6906 16.8461 47.4762 -20.1539 38.1869 3.9299 6.48197 -4.65391 -10.9827 37.8233 20.4231 -24.4087 -43.4826 
3.66263 50.0581 28.8593 7.43232 -37.2487 9.58245 -171.836 56.4383 97.4006 -107.959 3.12667 3.31278 70.1863 6.94227 -16.0716 79.0093 -4.62181 -0.720049 165.711 44.1566 74.4936 -91.2952 -19.9548 -0.314396 92.1063 -7.3582 24.9294 75.6862 -2.16904 16.1938 1.26216 10.5776 -89.5327 5.70693 2.7171 0.848234 -5.96137 2.75179 0.727734 -28.5122 2.33653 1.62593 -8.49952 2.33652 1.62594 100.072 2.24196 -91.1748 -12.8666 31.3924 -48.762 -1.69025 -44.8409 -7.15539 -20.2069 -1.38333 2.89 -83.3556 -33.5999 86.5108 -27.3372 6.14637 -83.4127 22.1852 57.8571 -27.9956 38.17 3.94965 6.54105 4.64129 -9.16988 48.241 9.43647 -25.0164 -54.9432 
1.65653 47.6107 37.9503 11.5275 -34.6581 12.0827 -177.516 49.3773 102.452 -99.3904 8.11498 3.43361 65.0375 4.1502 -16.7014 79.9771 -5.38074 -2.6067 162.968 33.9798 77.1604 -80.7815 -18.0713 1.99339 89.856 -6.98625 24.1125 78.6431 -1.28954 18.7702 1.29059 10.4501 -89.3682 5.95994 2.844 1.15863 -5.70823 2.89223 1.03225 -28.2583 2.36429 1.96007 -8.24562 2.36429 1.96008 100.192 0.296303 -90.3918 -16.9952 26.3773 -44.6966 4.93439 -46.1081 -4.35832 -29.7941 -2.99002 5.54093 -83.0948 -42.2546 88.0572 -27.9374 7.0428 -76.7444 33.0594 66.3524 -41.0947 39.6056 4.00463 6.26673 9.56012 -9.35312 50.8902 2.97084 -25.0684 -59.1376 
-0.756974 43.6726 46.6607 15.0552 -30.2536 12.4042 -177.063 44.3543 103.695 -90.622 13.3398 3.57165 61.1751 2.44715 -15.0569 78.7554 -6.58716 -6.66469 161.919 25.4821 77.8879 -69.1093 -15.4147 4.56095 89.7793 -6.1862 25.3623 73.2319 0.622114 25.6218 0.797498 10 -88.8685 6.84922 2.07701 2.14328 -4.82168 2.16931 2.04981 -27.349 1.3371 2.66816 -7.33635 1.33711 2.66815 101.4 -6.87534 -83.9767 -18.3107 18.7796 -42.9003 -0.783379 -32.9672 -23.4767 -48.8042 -5.16068 6.42917 -80.2169 -48.8026 93.2039 -25.6622 5.1385 -67.9513 46.2803 67.4614 -57.7338 42.3087 4.04887 5.67315 8.66937 -9.85039 42.2208 6.61023 -24.1975 -52.5435 
-2.66301 38.973 53.9672 16.81 -26.5975 12.69 -173.17 40.7596 105.093 -83.758 14.1796 3.00758 56.717 0.399862 -15.4366 75.5522 -5.39909 -4.40694 162.839 17.4989 79.2992 -56.9785 -12.9337 6.17367 86.964 -4.64458 26.7717 74.9899 2.68233 31.4051 0.200939 9.337 -88.6146 8.18015 1.00948 2.67886 -3.49311 1.12637 2.63186 -26.0063 0.158067 2.85826 -5.99368 0.158063 2.85823 102.347 -10.6694 -81.569 -18.7831 9.97498 -40.9785 -6.58541 -22.9974 -44.4499 -54.4286 -5.19063 5.06569 -80.636 -49.519 92.5994 -21.3896 -0.561708 -56.0737 47.1127 66.8648 -60.4693 33.9671 3.63994 6.96298 6.21174 -9.38726 28.3073 13.1247 -20.7761 -39.5185 
-4.07087 34.3459 59.7661 17.5473 -23.4468 11.867 -168.341 37.7982 105.579 -77.8792 13.7258 1.77967 53.6783 -0.777595 -14.826 74.3394 -5.29152 -4.56364 164.909 12.0181 80.4558 -47.9322 -11.5282 6.01603 83.3227 -3.1927 27.629 67.3517 4.52887 42.5343 -0.00114805 8.66135 -88.2668 9.52632 0.778722 3.37894 -2.14868 0.926599 3.34146 -24.6485 -0.272122 3.45673 -4.63587 -0.272126 3.45673 103.048 -11.9443 -79.5538 -17.7398 -1.15433 -36.1184 -11.068 -15.497 -61.8483 -66.673 -5.15039 2.75865 -79.6009 -49.2883 94.1715 -19.3099 -3.47448 -47.3827 40.7049 67.4426 -55.2529 46.0711 3.66325 3.88059 7.68451 -8.83951 22.8966 11.9121 -18.7022 -37.4672 
-4.83824 29.4522 64.6775 19.2572 -20.4338 11.4548 -166.297 34.6337 106.066 -72.1575 12.8709 0.989849 51.1764 -1.83695 -16.5019 72.3651 -3.70747 0.166857 166.42 7.13548 81.6436 -40.8368 -9.83969 5.67881 80.0574 -2.51582 26.946 64.852 3.7045 41.6181 -0.104821 8.04725 -88.1197 10.7547 0.658309 3.67597 -0.921193 0.81936 3.64352 -23.415 -0.476099 3.70395 -3.40233 -0.476098 3.70395 103.717 -13.1578 -77.7194 -14.5837 -11.7322 -28.565 -16.8716 -8.4355 -76.5573 -67.5701 -5.64954 3.42922 -78.3129 -48.7907 96.1444 -16.7422 -3.70108 -40.3546 37.1091 69.036 -52.5473 41.0949 2.38303 1.86217 9.1903 -9.15959 22.7626 9.21002 -18.311 -37.2362 
-5.13966 24.2529 68.5517 19.6572 -17.913 10.27 -164.669 31.3781 106.221 -67.029 12.2424 0.31216 47.5495 -3.24875 -17.9649 71.9823 -3.69756 0.112899 167.927 3.72153 82.4206 -35.7872 -9.50473 4.56546 74.9027 -1.21745 26.6013 65.3624 4.01804 42.4466 -0.138852 7.5253 -88.01 11.7954 0.659078 3.89728 0.118913 0.829836 3.86457 -22.37 -0.541752 3.9153 -2.35737 -0.541739 3.91529 104.315 -15.0187 -76.2955 -7.72484 -18.2792 -17.3418 -25.3401 0.213882 -90.3207 -67.363 -5.36328 3.00742 -78.576 -46.2296 95.6999 -14.0048 -2.61847 -31.3123 35.0437 68.6992 -53.2793 42.3629 2.5764 2.1079 13.3899 -9.12047 23.3309 5.55026 -18.1593 -38.9072 
-4.90344 19.971 71.0336 24.5221 -14.5255 9.59067 -165.955 29.6335 104.854 -62.4794 13.8522 0.391997 44.5643 -4.3532 -18.4927 72.3131 -4.86702 -4.0449 166.778 1.47301 81.417 -31.9218 -7.33536 5.83333 68.8677 0.92207 27.7866 65.4423 4.45782 44.2078 -0.776834 7.13743 -87.988 12.5923 -0.583935 4.08796 0.914969 -0.403607 4.10962 -21.5766 -1.78471 3.72438 -1.564 -1.78472 3.72439 104.419 -14.1166 -75.8889 -0.635881 -24.361 -4.526 -32.6274 10.6099 -101.658 -64.8987 -5.00046 2.81818 -78.7669 -45.1706 95.3745 -11.9044 -2.11189 -22.4475 33.9397 68.6052 -53.6904 43.056 2.36307 1.48715 20.8419 -7.40597 27.6194 -1.23147 -17.2144 -42.7683 
-4.9287 15.9942 72.951 23.6096 -10.2985 7.83261 -164.018 30.0963 104.95 -59.086 13.6777 -0.889231 42.2111 -5.24529 -20.7123 71.1108 -4.91934 -4.80492 166.62 2.38256 81.1162 -28.7772 -8.10464 5.90566 63.6912 2.25346 27.9834 64.7301 4.94911 46.9911 -1.01212 6.72534 -88.0479 13.4259 -1.06369 4.04404 1.74898 -0.884821 4.08683 -20.7489 -2.22921 3.53847 -0.736255 -2.2292 3.53847 104.342 -13.0934 -75.9653 5.58749 -26.9145 7.26775 -38.0221 21.2777 -110.71 -61.5749 -5.46217 4.1165 -78.4898 -43.0984 95.7912 -11.2654 -0.920576 -14.402 51.1746 69.4896 -71.2066 38.7299 2.0376 1.28087 29.8311 -5.41466 31.8122 -8.47596 -16.3731 -46.3111 
-5.23779 12.1785 74.4909 18.9117 -6.58112 6.82428 -158.917 30.2907 107.083 -55.9122 7.67039 -3.4441 40.7597 -5.32474 -24.8778 70.5926 -4.35262 -2.92189 168.56 3.15064 82.465 -27.987 -4.93522 4.49006 62.9907 2.58627 29.5742 67.8913 1.70841 31.3265 -0.792704 6.17285 -88.3835 14.5284 -0.771755 3.36595 2.8532 -0.622954 3.39661 -19.6549 -1.74726 2.97899 0.357692 -1.74726 2.97899 104.163 -12.1095 -76.3383 10.5579 -27.6498 17.1343 -39.1383 30.059 -118.68 -60.062 -5.08767 3.76269 -77.7248 -42.8068 97.0521 -10.0803 0.368818 -9.20249 42.8987 72.3068 -64.8471 42.1363 3.1373 3.49402 30.7505 -4.74684 30.3719 -7.75624 -15.7021 -42.7497 
